<svg xmlns="http://www.w3.org/2000/svg" xmlns:xlink="http://www.w3.org/1999/xlink" preserveAspectRatio="xMidYMid" viewBox="0 0 1636.309 298.4938" height="298.494" width="1636.309"><defs><linearGradient id="c"><stop offset="0" stop-color="#aa5ea4"/><stop offset="1" stop-color="#5e4387"/></linearGradient><linearGradient gradientUnits="userSpaceOnUse" gradientTransform="scale(1.00035 .99965)" id="a" y2="235.269" x2="264.24" y1="-65.708" x1="-76.85"><stop offset="0%" stop-color="#C06FBB"/><stop offset="100%" stop-color="#6E4D9B"/></linearGradient><linearGradient x1="26.884" y1="233.006" x2="205.101" y2="55.336" id="b" gradientTransform="scale(1.12123 .89188)" gradientUnits="userSpaceOnUse"><stop stop-color="#6E4D9B" offset="0%"/><stop stop-color="#77327A" offset="14%"/><stop stop-color="#B31777" offset="53%"/><stop stop-color="#CD0F7E" offset="79%"/><stop stop-color="#ED2C89" offset="100%"/></linearGradient><linearGradient gradientTransform="matrix(1.0836 -.01053 .01882 1.93713 -334.578 -207.541)" gradientUnits="userSpaceOnUse" y2="269.952" x2="574.505" y1="191.003" x1="186.745" id="d" xlink:href="#a"/><linearGradient gradientTransform="matrix(.75 0 0 .91667 -197.833 30.82)" gradientUnits="userSpaceOnUse" y2="30.2" x2="312.175" y1="201" x1="373.326" id="g" xlink:href="#b"/><linearGradient y2="3.448" x2="344.565" y1="201" x1="357.326" gradientTransform="matrix(.75 0 0 .58333 -129.516 99.92)" gradientUnits="userSpaceOnUse" id="h" xlink:href="#b"/><linearGradient y2="9" x2="325.326" y1="201" x1="357.326" gradientTransform="matrix(.75 0 0 1.04167 -54.098 3.434)" gradientUnits="userSpaceOnUse" id="j" xlink:href="#b"/><linearGradient gradientTransform="matrix(.981 .016 -.06115 3.7495 -274.622 -615.24)" gradientUnits="userSpaceOnUse" y2="245.8" x2="585.832" y1="203.133" x1="161.832" id="f" xlink:href="#c"/><linearGradient gradientTransform="translate(-5.871 29.64)" gradientUnits="userSpaceOnUse" y2="185.895" x2="1570.034" y1="-30.304" x1="276.756" id="k" xlink:href="#c"/><linearGradient y2="245.8" x2="585.832" y1="203.133" x1="161.832" gradientTransform="matrix(.981 .01558 -.05954 3.74952 -275.116 -617.385)" gradientUnits="userSpaceOnUse" id="i" xlink:href="#c"/><linearGradient y2="245.8" x2="585.832" y1="203.133" x1="161.832" gradientTransform="matrix(.9811 -.00902 .03446 3.74984 -293.88 -605.905)" gradientUnits="userSpaceOnUse" id="e" xlink:href="#c"/></defs><path style="isolation:auto;mix-blend-mode:normal" color="#000" overflow="visible" fill="#fff" d="M50 209.494h256v64H50z"/><g color="#000"><path d="M7.773 201.167l239.988-2.331.466 47.997L8.24 249.164z" style="isolation:auto;mix-blend-mode:normal" overflow="visible" fill="url(#d)" transform="translate(50 17.494)"/><path d="M96.543 224.292l63.998-.589v10l-63.997.588z" style="isolation:auto;mix-blend-mode:normal" overflow="visible" fill="url(#e)" transform="translate(50 17.494)"/><path style="isolation:auto;mix-blend-mode:normal" overflow="visible" fill="#fff" d="M145.367 113.79l63.997-.588 1.176 127.995-63.997.588z"/><path style="isolation:auto;mix-blend-mode:normal" d="M22.52 223.466l63.992 1.044v9.998l-63.992-1.043z" overflow="visible" fill="url(#f)" transform="translate(50 17.494)"/><path style="isolation:auto;mix-blend-mode:normal" overflow="visible" fill="#fff" d="M75.65 48.985l63.992 1.044-3.13 191.974-63.992-1.043z"/><path style="isolation:auto;mix-blend-mode:normal" transform="rotate(.934 -1047.763 3074.87)" overflow="visible" fill="url(#g)" d="M34.161 39.069h48v176h-48z"/><path transform="rotate(-.526 1928.744 -5432.45)" style="isolation:auto;mix-blend-mode:normal" overflow="visible" fill="url(#h)" d="M102.478 105.169h48v112h-48z"/><g><path style="isolation:auto;mix-blend-mode:normal" d="M166.369 223.479l63.992 1.016v9.999l-63.992-1.016z" overflow="visible" fill="url(#i)" transform="translate(50 17.494)"/><path style="isolation:auto;mix-blend-mode:normal" overflow="visible" fill="#fff" d="M219.798 25l63.992 1.016-3.43 215.972-63.991-1.016z"/><path style="isolation:auto;mix-blend-mode:normal" transform="rotate(.91 -1076.814 3157.902)" overflow="visible" fill="url(#j)" d="M177.896 12.809h48v200h-48z"/></g></g><text y="211.779" x="361.717" style="line-height:125%;-inkscape-font-specification:'Oxygen, Semi-Light';text-align:start" font-size="10" font-family="Oxygen" letter-spacing="0" word-spacing="0" fill="url(#k)"><tspan style="-inkscape-font-specification:Raleway" y="211.779" x="361.717" font-weight="400" font-size="192" font-family="Raleway">aurelia-charts</tspan></text></svg>