<svg xmlns="http://www.w3.org/2000/svg" xmlns:xlink="http://www.w3.org/1999/xlink" preserveAspectRatio="xMidYMid" viewBox="0 0 1626.3087 298" height="298" width="1626.309"><defs><linearGradient id="c"><stop offset="0" stop-color="#aa5ea4"/><stop offset="1" stop-color="#5e4387"/></linearGradient><linearGradient gradientUnits="userSpaceOnUse" gradientTransform="scale(1.00035 .99965)" id="a" y2="235.269" x2="264.24" y1="-65.708" x1="-76.85"><stop offset="0%" stop-color="#C06FBB"/><stop offset="100%" stop-color="#6E4D9B"/></linearGradient><linearGradient x1="26.884" y1="233.006" x2="205.101" y2="55.336" id="b" gradientTransform="scale(1.12123 .89188)" gradientUnits="userSpaceOnUse"><stop stop-color="#6E4D9B" offset="0%"/><stop stop-color="#77327A" offset="14%"/><stop stop-color="#B31777" offset="53%"/><stop stop-color="#CD0F7E" offset="79%"/><stop stop-color="#ED2C89" offset="100%"/></linearGradient><linearGradient gradientTransform="matrix(1.08365 0 0 1.93722 -330.365 -212.014)" gradientUnits="userSpaceOnUse" y2="269.952" x2="574.505" y1="191.003" x1="186.745" id="d" xlink:href="#a"/><linearGradient gradientTransform="matrix(.75 0 0 .91667 -199.994 31.75)" gradientUnits="userSpaceOnUse" y2="30.2" x2="312.175" y1="201" x1="373.326" id="f" xlink:href="#b"/><linearGradient y2="3.448" x2="344.565" y1="201" x1="357.326" gradientTransform="matrix(.75 0 0 .58333 -127.994 98.75)" gradientUnits="userSpaceOnUse" id="g" xlink:href="#b"/><linearGradient y2="9" x2="325.326" y1="201" x1="357.326" gradientTransform="matrix(.75 0 0 1.04167 -55.994 6.625)" gradientUnits="userSpaceOnUse" id="h" xlink:href="#b"/><linearGradient gradientTransform="matrix(.98113 0 0 3.75 -286.778 -609.749)" gradientUnits="userSpaceOnUse" y2="245.8" x2="585.832" y1="203.133" x1="161.832" id="e" xlink:href="#c"/><linearGradient gradientTransform="translate(-5.872 35.981)" gradientUnits="userSpaceOnUse" y2="185.895" x2="1570.034" y1="-30.304" x1="276.756" id="i" xlink:href="#c"/></defs><g color="#000"><path style="isolation:auto;mix-blend-mode:normal" overflow="visible" fill="#fff" d="M50 209h256v64H50z"/><path style="isolation:auto;mix-blend-mode:normal" d="M8 200h240v48H8z" overflow="visible" fill="url(#d)" transform="translate(50 17)"/><path style="isolation:auto;mix-blend-mode:normal" d="M168 224h64v10h-64zm-72 0h64v10H96zm-72 0h64v10H24z" overflow="visible" fill="url(#e)" transform="translate(50 17)"/><path style="isolation:auto;mix-blend-mode:normal" overflow="visible" fill="#fff" d="M146 113h64v128h-64zM74 49h64v192H74zM218 25h64v216h-64z"/><path style="isolation:auto;mix-blend-mode:normal" overflow="visible" fill="url(#f)" d="M32 40h48v176H32z" transform="translate(50 17)"/><path style="isolation:auto;mix-blend-mode:normal" overflow="visible" fill="url(#g)" d="M104 104h48v112h-48z" transform="translate(50 17)"/><path style="isolation:auto;mix-blend-mode:normal" overflow="visible" fill="url(#h)" d="M176 16h48v200h-48z" transform="translate(50 17)"/></g><text y="218.12" x="361.717" style="line-height:125%;-inkscape-font-specification:'Oxygen, Semi-Light';text-align:start" font-size="10" font-family="Oxygen" letter-spacing="0" word-spacing="0" fill="url(#i)"><tspan style="-inkscape-font-specification:Raleway" y="218.12" x="361.717" font-weight="400" font-size="192" font-family="Raleway">aurelia-charts</tspan></text></svg>